<svg xmlns="http://www.w3.org/2000/svg" width="990" height="90" viewBox="0 0 990 90" role="img" aria-label="宠伴·健康台账｜关键阶段（2025.09 起）">
<defs><marker id="a" markerWidth="8" markerHeight="8" refX="7" refY="4" orient="auto"><path d="M0,0 L0,8 L8,4 z" fill="#94a3b8"/></marker></defs>
<rect width="990" height="90" fill="#f1f5f9"/>
<g font-family="system-ui,-apple-system,'PingFang SC','Microsoft YaHei',sans-serif">
<rect x="8" y="10" width="148" height="68" rx="8" fill="#ffffff" stroke="#cbd5e1" stroke-width="1.2"/>
<text x="82" y="36" text-anchor="middle" font-size="11" font-weight="650" fill="#0f172a">25-09·界定</text>
<text x="82" y="56" text-anchor="middle" font-size="9" fill="#64748b">深访+差评主线</text>
<rect x="168" y="10" width="148" height="68" rx="8" fill="#ffffff" stroke="#cbd5e1" stroke-width="1.2"/>
<text x="242" y="36" text-anchor="middle" font-size="11" font-weight="650" fill="#0f172a">25-09·MVP</text>
<text x="242" y="56" text-anchor="middle" font-size="9" fill="#64748b">砍社区四主线</text>
<rect x="328" y="10" width="148" height="68" rx="8" fill="#ffffff" stroke="#cbd5e1" stroke-width="1.2"/>
<text x="402" y="36" text-anchor="middle" font-size="11" font-weight="650" fill="#0f172a">9-10·信任</text>
<text x="402" y="56" text-anchor="middle" font-size="9" fill="#64748b">本地OCR决案</text>
<rect x="488" y="10" width="148" height="68" rx="8" fill="#ffffff" stroke="#cbd5e1" stroke-width="1.2"/>
<text x="562" y="36" text-anchor="middle" font-size="11" font-weight="650" fill="#0f172a">25-10·验证</text>
<text x="562" y="56" text-anchor="middle" font-size="9" fill="#64748b">分组×提醒</text>
<rect x="648" y="10" width="148" height="68" rx="8" fill="#ffffff" stroke="#cbd5e1" stroke-width="1.2"/>
<text x="722" y="36" text-anchor="middle" font-size="11" font-weight="650" fill="#0f172a">25-10·迭代</text>
<text x="722" y="56" text-anchor="middle" font-size="9" fill="#64748b">有效期·月花费</text>
<rect x="808" y="10" width="164" height="68" rx="8" fill="#ffffff" stroke="#cbd5e1" stroke-width="1.2"/>
<text x="890" y="36" text-anchor="middle" font-size="11" font-weight="650" fill="#0f172a">10-11·交付</text>
<text x="890" y="56" text-anchor="middle" font-size="9" fill="#64748b">PWA·口径</text>
<line x1="158" y1="44" x2="166" y2="44" stroke="#94a3b8" stroke-width="1.5" marker-end="url(#a)"/>
<line x1="318" y1="44" x2="326" y2="44" stroke="#94a3b8" stroke-width="1.5" marker-end="url(#a)"/>
<line x1="478" y1="44" x2="486" y2="44" stroke="#94a3b8" stroke-width="1.5" marker-end="url(#a)"/>
<line x1="638" y1="44" x2="646" y2="44" stroke="#94a3b8" stroke-width="1.5" marker-end="url(#a)"/>
<line x1="798" y1="44" x2="806" y2="44" stroke="#94a3b8" stroke-width="1.5" marker-end="url(#a)"/>
</g></svg>